<svg xmlns="http://www.w3.org/2000/svg" width="22.068" height="22.106" viewBox="0 0 22.068 22.106">
  <path id="Icon_feather-phone-call" data-name="Icon feather-phone-call" d="M15.532,5.323A4.778,4.778,0,0,1,19.307,9.1M15.532,1.5a8.6,8.6,0,0,1,7.6,7.588m-.956,7.626v2.867a1.911,1.911,0,0,1-2.083,1.911,18.912,18.912,0,0,1-8.247-2.934,18.635,18.635,0,0,1-5.734-5.734A18.912,18.912,0,0,1,3.176,4.539a1.911,1.911,0,0,1,1.9-2.083H7.944A1.911,1.911,0,0,1,9.856,4.1a12.27,12.27,0,0,0,.669,2.685,1.911,1.911,0,0,1-.43,2.016L8.881,10.015a15.29,15.29,0,0,0,5.734,5.734l1.214-1.214a1.911,1.911,0,0,1,2.016-.43,12.271,12.271,0,0,0,2.685.669A1.911,1.911,0,0,1,22.174,16.714Z" transform="translate(-2.167 -0.396)" fill="none" stroke="#fff" stroke-linecap="round" stroke-linejoin="round" stroke-width="2"/>
</svg>
